<svg width="1280" height="900" viewBox="0 0 1280 900" fill="none" xmlns="http://www.w3.org/2000/svg">
  <defs>
    <linearGradient id="aboutBg" x1="0" y1="0" x2="1180" y2="900" gradientUnits="userSpaceOnUse">
      <stop offset="0%" stop-color="#11234B"/>
      <stop offset="100%" stop-color="#1F64D1"/>
    </linearGradient>
    <radialGradient id="aboutGlow" cx="0" cy="0" r="1" gradientUnits="userSpaceOnUse" gradientTransform="translate(960 240) rotate(140) scale(680 520)">
      <stop stop-color="#4FB1FF" stop-opacity="0.5"/>
      <stop offset="1" stop-color="#4FB1FF" stop-opacity="0"/>
    </radialGradient>
  </defs>
  <rect width="1280" height="900" rx="60" fill="url(#aboutBg)"/>
  <rect width="1280" height="900" rx="60" fill="url(#aboutGlow)"/>
  <g opacity="0.6">
    <rect x="220" y="220" width="840" height="420" rx="40" fill="#0F1F42" stroke="#4FB1FF" stroke-width="4"/>
    <rect x="260" y="260" width="760" height="88" rx="28" fill="#132C61"/>
    <rect x="260" y="368" width="760" height="220" rx="28" fill="#132C61"/>
    <g opacity="0.9">
      <rect x="296" y="292" width="156" height="24" rx="12" fill="#F7C948"/>
      <rect x="472" y="292" width="200" height="24" rx="12" fill="#1F64D1"/>
      <rect x="296" y="412" width="200" height="16" rx="8" fill="#203C7A"/>
      <rect x="296" y="444" width="320" height="16" rx="8" fill="#203C7A" opacity="0.8"/>
      <rect x="296" y="476" width="280" height="16" rx="8" fill="#203C7A" opacity="0.6"/>
      <rect x="296" y="532" width="248" height="40" rx="18" fill="#1F64D1"/>
    </g>
    <g opacity="0.8">
      <rect x="640" y="412" width="316" height="156" rx="28" fill="#11254F"/>
      <circle cx="704" cy="490" r="48" fill="#1F64D1"/>
      <path d="M690 490L702 502L730 470" stroke="white" stroke-width="8" stroke-linecap="round" stroke-linejoin="round"/>
      <rect x="776" y="456" width="148" height="20" rx="10" fill="#1F64D1"/>
      <rect x="776" y="492" width="124" height="20" rx="10" fill="#1F64D1" opacity="0.7"/>
      <rect x="776" y="528" width="96" height="20" rx="10" fill="#1F64D1" opacity="0.5"/>
    </g>
  </g>
  <g opacity="0.3">
    <circle cx="220" cy="196" r="120" fill="#4FB1FF"/>
    <circle cx="1080" cy="680" r="200" fill="#F7C948"/>
  </g>
</svg>
