<svg width="1280" height="960" viewBox="0 0 1280 960" fill="none" xmlns="http://www.w3.org/2000/svg">
  <defs>
    <linearGradient id="bgGradient" x1="0" y1="0" x2="1280" y2="960" gradientUnits="userSpaceOnUse">
      <stop offset="0%" stop-color="#0B1F4B"/>
      <stop offset="100%" stop-color="#1F64D1"/>
    </linearGradient>
    <radialGradient id="glow" cx="0" cy="0" r="1" gradientUnits="userSpaceOnUse" gradientTransform="translate(320 180) rotate(35) scale(720 520)">
      <stop stop-color="#4FB1FF" stop-opacity="0.55"/>
      <stop offset="1" stop-color="#4FB1FF" stop-opacity="0"/>
    </radialGradient>
    <linearGradient id="cardGradient" x1="0" y1="0" x2="420" y2="320" gradientUnits="userSpaceOnUse">
      <stop offset="0%" stop-color="#F7C948"/>
      <stop offset="100%" stop-color="#F9844A"/>
    </linearGradient>
  </defs>
  <rect width="1280" height="960" rx="64" fill="url(#bgGradient)"/>
  <ellipse cx="360" cy="240" rx="420" ry="320" fill="url(#glow)"/>
  <g opacity="0.45">
    <path d="M102 672C102 638.863 128.863 612 162 612H456C489.137 612 516 638.863 516 672V858C516 891.137 489.137 918 456 918H162C128.863 918 102 891.137 102 858V672Z" stroke="#4FB1FF" stroke-width="6" stroke-dasharray="12 18"/>
    <path d="M316 468C316 434.863 342.863 408 376 408H670C703.137 408 730 434.863 730 468V654C730 687.137 703.137 714 670 714H376C342.863 714 316 687.137 316 654V468Z" stroke="#8AD0FF" stroke-width="6" stroke-dasharray="14 22"/>
  </g>
  <g filter="url(#heroShadow)">
    <rect x="580" y="222" width="456" height="320" rx="32" fill="#0E2A63" stroke="#4FB1FF" stroke-width="4"/>
    <rect x="620" y="260" width="176" height="24" rx="12" fill="#1F64D1" opacity="0.65"/>
    <rect x="620" y="304" width="296" height="18" rx="9" fill="#274C92"/>
    <rect x="620" y="336" width="296" height="18" rx="9" fill="#274C92" opacity="0.8"/>
    <rect x="620" y="368" width="296" height="18" rx="9" fill="#274C92" opacity="0.6"/>
    <rect x="620" y="422" width="320" height="132" rx="20" fill="#112F73"/>
    <circle cx="652" cy="488" r="42" fill="#1F64D1"/>
    <path d="M644 488L648 492L660 480" stroke="white" stroke-width="6" stroke-linecap="round" stroke-linejoin="round"/>
    <rect x="708" y="458" width="198" height="22" rx="11" fill="#203C7A"/>
    <rect x="708" y="492" width="152" height="22" rx="11" fill="#203C7A" opacity="0.7"/>
  </g>
  <defs>
    <filter id="heroShadow" x="560" y="202" width="496" height="360" filterUnits="userSpaceOnUse" color-interpolation-filters="sRGB">
      <feFlood flood-opacity="0" result="BackgroundImageFix"/>
      <feOffset dy="16"/>
      <feGaussianBlur stdDeviation="18"/>
      <feComposite in2="SourceAlpha" operator="in" result="shadow"/>
      <feColorMatrix type="matrix" values="0 0 0 0 0.16 0 0 0 0 0.36 0 0 0 0 0.64 0 0 0 0.35 0"/>
      <feBlend in="SourceGraphic" in2="shadow" mode="normal"/>
    </filter>
  </defs>
  <g transform="translate(220 252)">
    <rect x="0" y="0" width="168" height="168" rx="32" fill="#132B63" stroke="#4FB1FF" stroke-width="4"/>
    <path d="M84 54C95.0457 54 104 62.9543 104 74C104 85.0457 95.0457 94 84 94C72.9543 94 64 85.0457 64 74C64 62.9543 72.9543 54 84 54Z" fill="#F7C948"/>
    <path d="M52 128C52 112.536 64.536 100 80 100H88C103.464 100 116 112.536 116 128V132H52V128Z" fill="#1F64D1"/>
  </g>
  <g transform="translate(184 504)">
    <rect width="196" height="100" rx="28" fill="url(#cardGradient)"/>
    <text x="32" y="56" fill="#0B1F4B" font-family="'Poppins', sans-serif" font-size="32" font-weight="700">Teamwork</text>
    <text x="32" y="84" fill="#0B1F4B" font-family="'Poppins', sans-serif" font-size="18" font-weight="500">Sprint Planning</text>
  </g>
</svg>
